<svg xmlns="http://www.w3.org/2000/svg" version="1" width="132.86" height="155.1"><path d="M56.64 152.11c-.352-.57-1.064-4.028-1.582-7.686-1.072-7.57-3.534-11.48-10.418-16.547-7.77-5.717-7.48-3.444-7.48-58.576 0-32.877.698-49.86 1.04-49.682l25.46 13.3.26 59.298c.202 46.777-.01 59.468-1 60.098-1.793 1.137-5.526 1.015-6.28-.205zM69.41 152.48c-.98-.395-1.25-13.306-1.25-59.835v-59.33l5.016-3.086c2.758-1.698 5.193-3.087 5.412-3.087.218 0 3.576-1.833 7.462-4.073 3.886-2.24 7.525-3.79 8.088-3.44.675.416 1.023 17.466 1.023 50.122 0 54.526.135 53.288-6.225 57.224-7.532 4.662-11.774 11.664-11.774 19.435 0 2.384-.54 4.873-1.2 5.533-1.213 1.213-4.256 1.463-6.55.538z" color="#000" fill="#8ec83e" overflow="visible"/><path d="M48.74 150.82c-.227-.726-.704-2.64-1.06-4.252-1.277-5.774-7.004-9.923-19.365-14.028-12.762-4.24-19.015-7.402-19.1-13.38L7.565 2l26.117 15.016 1.158 106.29c.02 1.73 4.442 5.003 8.125 7.69 7.88 5.75 10.326 9.42 10.54 15.817.138 4.158-.1 4.723-2.1 5.007-1.24.176-2.44-.274-2.665-1zM83.764 151.22c.227-.725.704-2.64 1.06-4.252 1.277-5.773 7.003-9.922 19.365-14.028 12.76-4.24 17.56-7.602 19.098-13.38 1.134-4.263 2.724-117.16 1.65-117.16-1.322 0-22.505 12.187-23.713 13.643-.87 1.05-1.315 15.27-1.66 53.145-.385 42.143-.737 52.232-1.9 54.518-.787 1.543-4.443 5.004-8.126 7.69-7.88 5.75-10.327 9.422-10.54 15.817-.14 4.16.097 4.724 2.098 5.008 1.24.177 2.44-.273 2.666-1z" fill="#034626"/></svg>
