<svg id="fb5cf3d9-50c2-4647-9447-e48d7d001960" data-name="vg" xmlns="http://www.w3.org/2000/svg" xmlns:xlink="http://www.w3.org/1999/xlink" viewBox="0 0 159.5 207.9"><defs><style>.ba91c267-dedd-4726-a063-a1316e9f58fe{fill:url(#d05cd492-91e9-4a03-96f2-a29379eba8d7);}.b9b08b48-bc83-4e07-9a2e-04740bb4a7a0{fill:url(#4cb7a9f1-8d39-49ba-a054-30df75619e10);}</style><linearGradient id="d05cd492-91e9-4a03-96f2-a29379eba8d7" x1="104.15" y1="207.91" x2="104.15" gradientUnits="userSpaceOnUse"><stop offset="0" stop-color="#006e30"/><stop offset="0.09" stop-color="#228438"/><stop offset="0.19" stop-color="#429840"/><stop offset="0.31" stop-color="#5da946"/><stop offset="0.43" stop-color="#71b74b"/><stop offset="0.57" stop-color="#80c04e"/><stop offset="0.73" stop-color="#88c550"/><stop offset="1" stop-color="#8bc751"/></linearGradient><linearGradient id="4cb7a9f1-8d39-49ba-a054-30df75619e10" x1="43.79" y1="205.78" x2="43.79" y2="67.5" gradientUnits="userSpaceOnUse"><stop offset="0" stop-color="#f26a5c"/><stop offset="0.09" stop-color="#f15952"/><stop offset="0.27" stop-color="#ee2d39"/><stop offset="0.33" stop-color="#ed1b2f"/><stop offset="0.56" stop-color="#d7162c"/><stop offset="0.98" stop-color="#b10d28"/></linearGradient></defs><title>vg</title><g id="b3408798-cce6-4349-bca5-539f2691c81d" data-name="&lt;Group&gt;"><path id="432aee67-508a-464b-9669-c36f8c5c19f4" data-name="&lt;Path&gt;" class="ba91c267-dedd-4726-a063-a1316e9f58fe" d="M86.2,177.1c-16.7,20.4-23.2,23.2-29.4,27a34.6,34.6,0,0,1-7.8,3.2.3.3,0,0,0,.1.6H129c7.6-4.8,12.3-12,17.5-22.1C165.2,149,158.7,23.5,157.4.3a.3.3,0,0,0-.6-.1C148.7,21.6,123.9,131.1,86.2,177.1Z"/><path id="3285bc3d-06e9-431c-b223-a0ff0967400c" data-name="&lt;Path&gt;" class="b9b08b48-bc83-4e07-9a2e-04740bb4a7a0" d="M60.4,67.5H0c1.1,15.2,4.1,30.7,7.4,48.3,6.4,34.3,16.4,70.7,32.3,87.7,5.2,5.6,17.9.9,31.5-13.9,15-16.3,16.4-22.6,16.4-22.6-6.9-11.7-13-29.3-18.4-49.9A295.1,295.1,0,0,1,60.4,67.5Z"/></g></svg>