<svg xmlns="http://www.w3.org/2000/svg" version="1" width="237.27" height="200.111"><path d="M23.27 15.454s1.137 32.705 4.016 45.1c2.88 12.397-2.88 26.98 7.916 30.626 10.796 3.646 4.32 8.02 7.917 11.667 3.598 3.646 48.135 48.492 48.135 48.492l-28.068 44.478s47.5 0 48.94-2.917c1.438-2.915 7.196-4.374 7.196-8.75 0-4.374 1.44-29.97 1.44-29.97s12.212-2.127 15.09-5.773c2.88-3.646 8.637-10.937 11.516-11.667 2.878-.73 8.283-2.723 8.283-2.723s2.35-7.306-.53-9.494c-2.88-2.187-7.213-4.226-7.213-4.226l62.083-87.917s-31.667 2.187-37.424 5.104c-5.76 2.917-17.274 11.667-18.713 13.854-1.44 2.188-39.61 54.748-39.61 54.748L23.27 15.454z" fill="#fff" fill-rule="evenodd"/><path d="M121.263 202.832c0-.558-1.463-2.344-3.25-3.97-2.564-2.333-4.2-2.966-7.75-3-8.573-.082-11.894-2.21-5.88-3.767 2.22-.575 4.308-2.495 7.25-6.664l4.13-5.856.31-19.376c.294-18.424.204-19.523-1.82-22.364-2.42-3.4-1.266-4.055 1.59-.9 1.402 1.55 1.987 4.017 2.267 9.564.326 6.452.602 7.383 2.015 6.8.9-.372 3.803-1.267 6.45-1.99 6.237-1.702 8.606-3.32 13.68-9.34 2.297-2.72 5.374-5.4 6.84-5.954 4.39-1.654 8.168-2.264 8.168-1.318 0 .49-1.663 1.158-3.695 1.488-2.845.462-5.337 2.23-10.83 7.686-5.206 5.172-8.327 7.438-11.554 8.39l-4.42 1.302-.5 14.892c-.483 14.345-.602 15.024-3.25 18.487-1.514 1.978-2.75 3.89-2.75 4.25 0 .36 2.16.656 4.8.656 4.345 0 7.2 1.23 7.2 3.105 0 .39-1.78.535-3.957.325-4.12-.397-6.07.944-4.157 2.858 1.384 1.385 1.47 5.713.113 5.713-.55 0-1-.456-1-1.014zm-59-7.924c0-.732 28.238-41.062 35.402-50.562 1.394-1.848 1.512-1.487 1.553 4.76.05 7.442.758 6.074-13.067 25.24-3.172 4.4-7.66 10.623-9.97 13.83-2.312 3.205-5.293 6.243-6.625 6.75-3.14 1.193-7.292 1.183-7.292-.018zm12.76.366c-.314-.314 1.524-3.397 4.084-6.85C88.1 176.3 93.78 168.315 95.71 165.097c1.07-1.787 2.307-3.25 2.75-3.25.44 0 .803 2.698.803 5.995 0 5.87-.16 6.218-7.485 16.39-4.117 5.714-8.204 10.667-9.082 11.004-2.013.772-6.914.798-7.672.04zm12.24 0c0-.317 2.587-4.193 5.75-8.615l5.75-8.04.295 7.205c.183 4.45-.15 7.745-.872 8.614-1.123 1.35-10.923 2.1-10.923.833zm-1.02-48.948l-3.41-3.52 4.212-4.213 4.213-4.213 2.978 2.983 2.977 2.983-3.093 4.75c-1.702 2.613-3.402 4.75-3.78 4.75-.376 0-2.22-1.584-4.097-3.52zm-9.293-9.285c-1.478-1.54-2.687-3.286-2.687-3.875 0-.59 2.284-2.055 5.075-3.256 4.263-1.835 5.342-1.974 6.746-.874 2.558 2.006 4.18 3.616 4.18 4.152 0 .827-8.33 6.658-9.51 6.658-.615 0-2.326-1.262-3.804-2.805zm18.515-1.48l-2.147-2.284 5.32-4.154c4.837-3.778 5.46-4.01 6.89-2.58 1.43 1.43 1.245 2.012-2.06 6.438-1.997 2.676-4.133 4.866-4.744 4.866-.612 0-2.08-1.028-3.26-2.285zm59.63-2.606l-3.667-.608 2.3-2.868 2.298-2.868 2.12 2.118c2.033 2.035 2.923 5.27 1.367 4.976-.413-.078-2.4-.415-4.418-.75zm-66.177-3.937c-.91-1.005-1.655-2.112-1.655-2.46 0-1.295 13.334-4.777 14.36-3.75.554.553.81 1.13.573 1.283-.238.152-2.32 1.735-4.625 3.517-4.808 3.717-6.34 3.966-8.652 1.41zm-23.137-3.152c-2.138-2.19-3.665-4.204-3.394-4.476.272-.272 3.672-.79 7.557-1.15 6.926-.644 7.126-.597 10.327 2.463l3.264 3.12-4.385 1.99c-6.543 2.968-8.905 2.623-13.37-1.948zm80.018 2.038c-.36-.58-2.202-1.057-4.094-1.057-1.893 0-3.44-.393-3.44-.873s2.81-.818 6.25-.75c4.833.095 6.25.463 6.25 1.623 0 1.754-4.008 2.607-4.966 1.057zm-43.2-7.307c-8.978-9.188-12.87-14.842-15.35-22.298-2.262-6.793-2.454-16.383-.37-18.466.59-.59 9.883 8.003 24.906 23.035l23.963 23.98h-27.042l-6.107-6.25zm52.665 4.577c0-1.984-5.23-3.327-12.966-3.327-8.035 0-11.034-.56-11.034-2.056 0-1.51 18.064-25.853 22.175-29.883 5.15-5.048 11.62-8.06 17.314-8.06 4.88 0 5.338.545 2.968 3.546-3.218 4.073-24.457 34.39-24.457 34.91 0 .298.83.543 1.845.543 2.073 0 5.836 3.652 4.815 4.673-.363.362-.66.207-.66-.347zm-74.437-4.254c-1.616-1.69-2.516-3.105-2-3.142.515-.038 4.752-.007 9.415.067 9.917.16 13.203 1.718 7.665 3.636-1.953.677-5.484 1.518-7.847 1.87-3.892.58-4.57.353-7.232-2.43zm-20.163-3.153c-4.044-1.174-13.555-10.11-11.32-10.632.87-.204 6.04.788 11.49 2.204 7.78 2.02 10.387 3.157 12.133 5.29 1.224 1.494 2.24 2.94 2.26 3.216.06.904-11.395.842-14.563-.08zm64.92-3.68c-3.31-3.783-3.29-4.367.278-8.74 1.153-1.413 1.772-1.628 2.107-.733.26.697 1.038 1.832 1.727 2.52 3.083 3.083 3.69 5.597 1.983 8.202-.904 1.38-1.93 2.482-2.28 2.448-.35-.035-2.065-1.698-3.814-3.697zm-36.82 2.015c-11.478-.565-13.234-1.132-16.58-5.357-1.74-2.195-2.96-4.19-2.717-4.436.245-.245 5.788 1.35 12.32 3.544 15.44 5.187 17.185 6.75 6.977 6.248zm-10.486-9.242c-8.446-2.998-10.828-4.285-12.245-6.618-2.644-4.354-2.356-5.556.98-4.098 7.022 3.07 23.248 12.252 23.692 13.41.69 1.797-.5 1.54-12.427-2.694zm54.774 2.052c-.91-1.063-2.393-3.06-3.296-4.44-1.555-2.372-1.523-2.664.622-5.565 1.244-1.683 2.402-3.06 2.572-3.06.17 0 1.367 2.19 2.66 4.868 2.102 4.36 2.204 5.145.97 7.5-1.647 3.142-1.464 3.106-3.527.697zm-72.287-1.24c-3.85-1.066-9.348-2.597-12.217-3.4-3.33-.934-6.313-2.63-8.252-4.694-2.93-3.12-4.658-6.438-3.8-7.297.886-.885 29.366 11.914 30.996 13.93 3.343 4.132 3.094 4.186-6.727 1.463zm56.61-2.21l-3.28-3.386 2.335-3.602c1.284-1.982 2.874-3.61 3.534-3.615.66-.008 2.385 1.54 3.835 3.442l2.635 3.455-2.703 3.545c-1.488 1.95-2.788 3.544-2.89 3.544-.102 0-1.66-1.523-3.466-3.385zm-43.61-7.924c-8.723-4.91-11.362-6.916-12.747-9.692-.96-1.925-1.337-3.637-.837-3.804.5-.168 4.436 2.19 8.746 5.24 4.31 3.05 9.974 6.975 12.587 8.723 2.612 1.748 4.75 3.777 4.75 4.51 0 1.972-.534 1.76-12.5-4.977zm62.687 1.292l-2.3-5.015 2.124-2.985c1.17-1.64 2.482-2.984 2.917-2.984.437 0 1.51 2.522 2.388 5.604 1.45 5.096 1.452 5.822.025 8-.864 1.318-1.86 2.396-2.21 2.396-.354 0-1.677-2.257-2.943-5.016zm-75.187 1.308c-.825-.303-3.3-1.342-5.5-2.31-2.2-.967-8.95-3.853-15-6.412-6.05-2.56-13.138-6.098-15.752-7.862-4.503-3.04-12.635-13.153-11.494-14.294.293-.293 11.118 5.23 24.056 12.277 19.918 10.846 23.764 13.307 25.09 16.06 1.57 3.254 1.398 3.567-1.4 2.54zm63.25-3.79c-1.238-1.91-2.25-3.946-2.25-4.523 0-1.36 3.024-5.98 3.915-5.98.378 0 1.68 2.048 2.896 4.55 2.128 4.38 2.144 4.637.45 6.968-.97 1.33-1.986 2.43-2.26 2.44-.276.01-1.514-1.545-2.75-3.455zm-52.57-7.4c-12.568-9.075-13.22-9.693-14.075-13.352-.733-3.134 1.253-3.83 3.433-1.204.706.85 5.454 4.9 10.552 9s9.976 8.162 10.84 9.026c1.618 1.62 2.15 4.46.82 4.386-.412-.023-5.618-3.558-11.568-7.855zm70.53 3.397c-1.685-6.3-1.517-8.91.702-10.92 1.86-1.682 1.93-1.553 2.6 4.702.38 3.537.532 7.246.34 8.242-.672 3.46-2.437 2.477-3.64-2.025zm-12.495-3.847c-1.966-4.78-1.41-7.832 1.98-10.884 1.86-1.675 1.98-1.57 3.724 3.277 1.8 5.01 1.8 5.01-.56 8.477-1.297 1.906-2.584 3.467-2.86 3.47-.274 0-1.302-1.95-2.284-4.34zm16.923-2.63c-.498-5.37-.293-7.786.846-9.99 1.552-3 3.295-4.587 4.126-3.756.63.63-2.665 18.994-3.592 20.026-.396.44-1.017-2.386-1.38-6.28zM53.764 88.16C38.378 80.5 20.388 69.746 15.4 65.232 10.05 60.39 3.372 50.402 4.64 49.137c.498-.5 11.227 6.525 45.297 29.66 6.335 4.3 8.306 6.204 8.757 8.46.32 1.6.467 3.018.326 3.152-.142.133-2.507-.878-5.257-2.248zm24.925-1.58c-18.885-15-20.64-16.768-20.256-20.42l.33-3.15 8.5 7.572 12.312 10.97c2.787 2.485 3.728 4.052 3.5 5.83l-.31 2.435-4.076-3.237zm72.576 1.573c0-.445.675-4.634 1.5-9.31.822-4.674 1.497-8.593 1.497-8.708.005-.623 5.47-5.157 5.808-4.82.616.617-6.837 22.43-7.885 23.078-.506.313-.92.205-.92-.24zm5-3.997c0-2.824 6.572-19.768 8.288-21.367 4.298-4.003 4.826-2.124 1.35 4.806-1.863 3.713-4.342 8.86-5.51 11.44-1.964 4.336-4.13 7.022-4.13 5.122zm-19.44-5.13c-1.69-5.083-1.68-5.253.44-8.683 1.19-1.924 2.514-3.5 2.944-3.5.73 0 2.055 7.106 2.055 11.03 0 .962-.837 2.782-1.86 4.045l-1.857 2.295-1.722-5.186zm-55.577 1.783c-1.383-1.355-5.882-5.39-9.998-8.964-9.766-8.48-9.506-8.226-10.71-10.52-1.07-2.035-.03-6.602 1.44-6.34.43.076 5.656 5.195 11.61 11.375C82.88 75.998 84.374 78 84.09 80.438l-.327 2.84-2.516-2.466zm80.016.578c0-.252 2.283-5.204 5.075-11.005 4.49-9.33 8.01-13.785 9.622-12.173.547.547-7.58 16.095-10.918 20.886-1.664 2.39-3.78 3.672-3.78 2.292zm-126-14.62c-11.275-7.69-21.456-15.012-22.625-16.273-4.416-4.762-10.248-16.11-8.947-17.41.24-.24 4.856 2.98 10.255 7.157 5.4 4.177 14.543 11.238 20.318 15.69 11.035 8.508 16.09 12.515 19.642 15.57 1.986 1.71 4.092 9.403 2.545 9.297-.378-.027-9.912-6.34-21.187-14.03zm132 12.44c0-.35 2.587-5.316 5.75-11.037 4.115-7.444 6.403-10.566 8.046-10.982 1.262-.32 2.468-.41 2.68-.198.368.368-2.243 4.76-10.17 17.106-2.03 3.163-4.28 5.75-5 5.75-.718 0-1.307-.286-1.307-.637zm5 .01c0-.344 2.993-5.294 6.65-11 5.107-7.96 7.16-10.372 8.835-10.372 1.2 0 2.45.27 2.782.6.33.33-2.52 4.89-6.334 10.13-3.813 5.243-6.933 9.923-6.933 10.4 0 .48-1.125.87-2.5.87s-2.5-.282-2.5-.627zm-28.42-3.558c-1.956-6.318-.992-13.008 2.6-18.064 2.193-3.083 4.228-3.675 3.437-1-.285.963-.61 4.45-.722 7.75-.196 5.793-1.79 10.698-3.895 12-.558.345-1.197.036-1.42-.686zm6.936-12.314c.342-4.4 1.057-9.68 1.587-11.734 1.042-4.036 5.288-9.702 6.423-8.57 1.112 1.11-4.84 23.983-6.83 26.25-1.755 1.997-1.788 1.83-1.18-5.946zm-102.517 1.2c-3.575-2.843-12.947-10.266-20.826-16.498-12.334-9.754-14.66-12.05-16.74-16.516-1.483-3.184-2.42-7.03-2.425-9.96l-.01-4.777 5.837 6.78c3.208 3.73 14.008 13.95 24 22.71 17.595 15.43 18.163 16.048 18.163 19.745 0 2.1-.338 3.786-.75 3.75-.413-.038-3.675-2.394-7.25-5.235zm108 .506c0-.446 1.59-7.293 3.537-15.216 4.228-17.22 7.29-24.44 12.544-29.57 4.034-3.94 4.73-3.626 2.817 1.265-.604 1.55-3.71 10.24-6.9 19.316-3.19 9.075-6.304 17.86-6.917 19.52-1.032 2.794-5.08 6.528-5.08 4.686zm7-4.624c0-1.725 12.734-36.084 14.776-39.87 2.486-4.61 10.872-13.396 11.85-12.418.92.92-21.333 49.846-23.403 51.456-1.58 1.23-3.224 1.653-3.224.832zm-118-9.864C22.978 31.132 16.516 22.73 15.535 11.912c-.29-3.185-.095-6.56.43-7.498.802-1.434 1.503-.805 4.376 3.928 5.628 9.267 14.64 20.26 27.133 33.1C58.55 52.82 59.23 53.753 58.64 56.703c-.345 1.728-1.134 3.114-1.752 3.08-.62-.036-5.85-4.185-11.625-9.22zm126.88 3.144c5.47-12.523 11.71-26.158 15.414-33.677 2.76-5.6 7.832-11.48 12.276-14.227 3.58-2.212 5.58-2.066 3.675.27-1.025 1.254-7.838 13.668-18.262 33.273-6.682 12.566-9.76 17.5-10.914 17.5-.498 0-1.623.275-2.5.612-1.38.53-1.338.025.31-3.75zm16.37 2.432c-1.238-.238-2.25-.632-2.25-.874 0-.243 2.186-3.924 4.858-8.18 17.91-28.526 23.35-35.093 30.788-37.158 4.676-1.3 6.414-1.33 8.28-.15 1.135.72.727 1.472-2 3.696-7.468 6.09-16.024 15.433-24.604 26.872-4.95 6.6-9.632 13.013-10.402 14.25-.77 1.238-1.63 2.19-1.91 2.114-.28-.075-1.522-.33-2.76-.57zm-6.932-6.544c1.92-3.437 6.163-11.2 9.428-17.25 11.12-20.608 14.27-24.497 21.524-26.577 4.898-1.406 5.026-.084.492 5.1-2.35 2.684-8.98 12.44-14.732 21.68-13.605 21.848-14.708 23.296-17.734 23.296h-2.467l3.49-6.25z" fill="#00008f"/></svg>
