<svg xmlns="http://www.w3.org/2000/svg" xmlns:xlink="http://www.w3.org/1999/xlink" version="1" width="200" height="199.971"><defs><linearGradient id="a"><stop offset="0" stop-color="red"/><stop offset="1"/></linearGradient></defs><g transform="translate(4.99 -27.056) scale(9.6437)"><defs><path d="M0 13.174c0 5.44 4.41 9.85 9.852 9.85 5.44 0 9.852-4.41 9.852-9.85 0-5.44-4.41-9.85-9.852-9.85-5.44 0-9.852 4.41-9.852 9.85" id="b"/></defs><clipPath id="c"><use width="322.857" height="314.286" xlink:href="#b" overflow="visible"/></clipPath><radialGradient cx="-239.977" cy="410.81" r="1" id="d" gradientUnits="userSpaceOnUse" gradientTransform="matrix(15.969 0 0 -15.9662 3845.75 6566.58)"><stop offset="0" stop-color="#f6861f"/><stop offset=".227" stop-color="#ed1c24"/><stop offset=".582" stop-color="#b31217"/><stop offset="1" stop-color="#b31217"/></radialGradient><path clip-path="url(#c)" fill="url(#d)" d="M0 3.324h19.703v19.7H0z"/></g><defs transform="translate(4.997 126.082) scale(2.9922)"><path id="e" d="M0 0h139.19v26.29H0z"/></defs><defs transform="translate(4.997 126.082) scale(2.9922)"><path d="M0 13.174c0 5.44 4.412 9.85 9.853 9.85 5.44 0 9.852-4.41 9.852-9.85 0-5.44-4.41-9.85-9.852-9.85-5.44 0-9.852 4.41-9.852 9.85" id="f"/></defs></svg>
