<svg xmlns="http://www.w3.org/2000/svg" viewBox="79.5 -13.5 57.9 57.9"><title>Píratar</title><path d="M99.6-.8v-3.9h-2.5v4.6c-1.7.5-2.6 1-2.5 1.4.6-.3 1.4-.3 2.5-.3v23.7c-2.6 4.9 1.1 12.5 1.1 12.5s-2.7-8.1 3.3-11.9c5.6-3.5 24.8-1.9 24.7-12.7 0-15.3-17.7-15.2-26.6-13.4zm7.9 14.9c-.9 4.1-5.3 6.2-7.9 8V1.4c4.4 1.1 9.6 4.5 7.9 12.7zm11.8-6.4s-.2 1.4-.9 2.7v1.2c.1.2.2.5-.1.6-.3.1-.7.1-.9 0l-.2.4v1.1c.1.2.1.4 0 .5-.1.1-.5.1-.8.1 0 0-.1.3-.1.6s.2 1.1.5 1.8.6 1.3.5 1.4c0 0-1.1-.1-1.6-.1-.6 0-1.6.1-1.6.1-.1-.1.1-.8.5-1.4s.5-1.4.5-1.8c0-.3-.1-.6-.1-.6-.3 0-.6 0-.8-.1-.1-.1-.1-.3 0-.5s0-1.1 0-1.1l-.2-.4c-.2.1-.5.1-.9 0-.3-.1-.2-.5-.1-.6.1-.2 0-1.2 0-1.2-.8-1.3-.9-2.7-.9-2.7-.9.2-1.3-.2-1.3-.3 0-.2.2-.5.4-1.1.1-.6.3-2.1.3-2.1s.4.9 1.6.9c1.3 0 2-1.5 2.6-1.5.6 0 1.3 1.5 2.6 1.5s1.6-.9 1.6-.9l.3 2.1c.1.6.4.9.4 1.1 0 .2-.4.5-1.3.3z"/><circle fill="none" stroke="#000" stroke-width="3" stroke-miterlimit="10" cx="108.5" cy="15.5" r="27.5"/></svg>