<svg xmlns="http://www.w3.org/2000/svg" viewBox="270 -82.1 105.8 123"><path fill="#941980" d="M356.956-75.353c-5.003.5-9.507.5-14.01-1.5l-12.008-4.004c-5.004-1.5-10.007-1.5-15.01 0l-12.01 4.003c-4.503 1.5-9.506 2-14.01 1.5l-20.014-3v57.04c0 9.005 2.002 22.515 24.017 41.53 21.016 18.512 29.022 20.513 29.022 20.513s8.006-2.002 29.02-20.515C373.97 1.2 375.97-12.31 375.97-21.315v-57.04l-19.014 3.002z"/><path fill="#FFF" d="M305.27-33.934c4.502 0 7.003-3.002 7.003-7.505 0-4.002-2.5-7.004-7.004-7.004h-9.508v14.51h9.507zm1 21.015c4.002 0 7.505-3 7.505-7.504 0-4.003-4.003-7.506-8.506-7.506h-9.508v15.01h10.507zm-17.513-40.528c0-.5.5-1.5 1.5-1.5h15.512c8.505 0 14.51 5.503 14.51 13.01 0 5.502-4.004 9.005-7.006 11.006 3.503 1.5 8.506 5.004 8.506 11.508 0 7.506-6.504 13.51-15.01 13.51h-16.012c-1 0-1.5-.5-1.5-1.5-.5-.5-.5-46.034-.5-46.034zM329.827-53.648c0-.5.5-1.5 1.5-1.5h27.52c1.002 0 1.502.5 1.502 1.5v4.003c0 .5-.5 1.5-1.502 1.5h-22.016v16.012h18.513c.5 0 1.502.5 1.502 1.502v4c0 .502-.5 1.502-1.502 1.502h-18.513v17.012c0 .5-.5 1.502-1.5 1.502h-4.504c-1 0-1.5-.5-1.5-1.502v-45.532z"/></svg>
