<?xml version="1.0" encoding="utf-8"?>
<!-- Generator: Adobe Illustrator 19.2.0, SVG Export Plug-In . SVG Version: 6.00 Build 0)  -->
<svg version="1.1" id="Layer_1" xmlns="http://www.w3.org/2000/svg" xmlns:xlink="http://www.w3.org/1999/xlink" x="0px" y="0px"
	 viewBox="0 0 104.5 101.5" style="enable-background:new 0 0 104.5 101.5;" xml:space="preserve">
<style type="text/css">
	.st0{fill:#005A96;}
	.st1{fill:#F09A20;}
</style>
<g id="_x31_yHcJD.tif">
	<g>
		<g>
			<path class="st0" d="M52.3,82.5c-3.2,5.5-6.2,10.6-9.2,15.8c-1.6,2.7-4.1,3.7-6.7,2.9c-3.4-1-5.2-4.8-3.5-7.8
				c4.8-8.5,9.8-17,14.8-25.4c2-3.3,7.2-3.3,9.2,0c5.1,8.4,10,16.8,14.8,25.4c1.5,2.7,0.3,6-2.3,7.4c-2.8,1.5-6,0.7-7.6-2
				c-2.6-4.4-5.2-8.8-7.7-13.2C53.5,84.6,53,83.7,52.3,82.5z"/>
			<path class="st1" d="M52.3,18.9c3.2-5.4,6.2-10.5,9.1-15.6C62.7,1,64.6-0.2,67.1,0c4.1,0.4,6.5,4.7,4.4,8.3
				C66.8,16.7,62,25,57,33.2c-2.2,3.7-7.4,3.5-9.6-0.2c-4.8-8.1-9.5-16.2-14.2-24.3c-1.7-3-0.9-6.2,1.8-7.8C37.8-0.8,41.2,0,43,3
				c2.8,4.6,5.4,9.3,8.1,13.9C51.4,17.5,51.8,18,52.3,18.9z"/>
			<path class="st1" d="M24.4,66.6c-5.5,0-10.4,0-15.4,0c-1.2,0-2.5,0-3.7-0.1c-3.1-0.3-5.4-2.7-5.3-5.7c0.1-3.1,2.5-5.5,5.7-5.5
				c5.3-0.1,10.6,0,15.9,0c4.2,0,8.3,0,12.5,0c4.9,0,7.4,4.4,5,8.7c-4.6,8-9.2,15.9-13.8,23.8c-1.9,3.3-5.3,4.2-8.1,2.5
				c-2.8-1.7-3.5-5-1.6-8.2c2.6-4.4,5.1-8.8,7.7-13.2C23.5,68.3,23.8,67.7,24.4,66.6z"/>
			<path class="st1" d="M80.1,66.6c2.5,4.3,4.8,8.3,7.1,12.2c0.8,1.4,1.6,2.7,2.3,4.1c1.5,2.8,0.6,5.9-2,7.5c-2.7,1.6-6.1,1-7.7-1.7
				c-5-8.4-9.9-16.7-14.7-25.2c-2-3.5,0.7-7.9,4.7-8c9.8-0.1,19.6-0.1,29.4,0c3.1,0,5.3,2.6,5.3,5.6c0,3.1-2.3,5.5-5.6,5.6
				c-5.4,0.1-10.7,0-16.1,0C82.1,66.6,81.3,66.6,80.1,66.6z"/>
			<path class="st0" d="M80.2,34.9c2.7,0,5,0,7.4,0c3.8,0,7.6-0.1,11.4,0c3.2,0.1,5.5,2.5,5.5,5.6c0,3.1-2.3,5.5-5.6,5.6
				c-1.9,0.1-3.8,0-5.7,0c-7.6,0-15.2,0-22.9,0c-4.8,0-7.3-4.4-5-8.6c4.6-8,9.3-16,13.9-24c1.8-3.1,5.2-4.1,8-2.5
				c3,1.7,3.7,5,1.8,8.3c-2.6,4.5-5.3,9-7.9,13.6C80.9,33.4,80.6,34,80.2,34.9z"/>
			<path class="st0" d="M24.3,34.7c-0.4-0.8-0.7-1.4-1-1.9c-2.6-4.5-5.3-9-7.9-13.6c-1.8-3.2-1.1-6.5,1.7-8.2
				c2.9-1.7,6.3-0.7,8.2,2.5c4.7,8,9.3,16,13.9,24c2.3,4-0.2,8.5-4.8,8.5c-9.4,0.1-18.9,0.1-28.4,0c-3.5,0-6-2.4-6-5.6
				c0-3.2,2.5-5.6,6-5.6c5.4,0,10.7,0,16.1,0C22.8,34.8,23.4,34.8,24.3,34.7z"/>
			<path class="st0" d="M44,50.6c0.1-4.5,3.9-8.3,8.5-8.2c4.6,0.1,8.3,4,8.2,8.4c-0.1,4.5-4,8.2-8.5,8.2
				C47.6,58.9,43.9,55.2,44,50.6z"/>
		</g>
	</g>
</g>
</svg>
