<svg xmlns="http://www.w3.org/2000/svg" width="182" height="249" style="shape-rendering:geometricPrecision;text-rendering:geometricPrecision;image-rendering:optimizeQuality;fill-rule:evenodd;clip-rule:evenodd"><path fill="#fec93c" d="M91.5-.5h2c16.627 16.459 19.46 35.125 8.5 56A1558.25 1558.25 0 0 0 66.5 110c2.228 5.376 5.394 5.876 9.5 1.5l33-51c2.11 2.992 3.443 6.325 4 10 1.791 10.613.124 20.613-5 30a838.21 838.21 0 0 1-32 37 58.524 58.524 0 0 0-7.5 16c-17.036-11.913-23.87-28.246-20.5-49A599713.24 599713.24 0 0 0 91.5-.5Z" style="opacity:.943"/><path fill="#fec93c" d="M181.5 40.5v21c-2.077 8.5-5.577 16.5-10.5 24a5719.577 5719.577 0 0 0-58.5 69c1.233 4.77 3.9 5.936 8 3.5a1716.774 1716.774 0 0 1 56-64.5c4.638 12.814 3.471 25.147-3.5 37a2329.533 2329.533 0 0 1-53 62c-3.658 3.882-3.991 7.882-1 12 1.171 1.393 2.671 2.227 4.5 2.5 6 .667 12 .667 18 0a372 372 0 0 1 22-5c-10.235 24.749-28.235 40.249-54 46.5h-20c-25.421-5.579-43.588-20.246-54.5-44a252.42 252.42 0 0 1-9-30c-4.515-12.693-13.348-20.027-26.5-22v-1a235.454 235.454 0 0 1 12-14.5c10.397-6.693 20.063-5.86 29 2.5a870.209 870.209 0 0 0 23.5 32 192.052 192.052 0 0 0 17 16c-6.468-14.892-5.802-29.559 2-44a15397.15 15397.15 0 0 1 95.5-111 52.752 52.752 0 0 1 3 8Z" style="opacity:.959"/></svg>