<svg id="Layer_1" xmlns="http://www.w3.org/2000/svg" viewBox="0 0 256 145"><style>.st0{fill:#ef4d9a}</style><path class="st0" d="M1990 1420c-8-5-26-10-39-10-22 0-23-2-16-42 12-71 11-80-17-101-26-19-29-20-46-4-30 28-52 21-70-23-19-45-40-50-68-19-22 25-81 52-94 44-19-12-10-22 15-18 25 5 66-27 91-72 10-17 13-18 28-6 9 7 25 33 36 57 19 45 36 55 46 29 9-22 49-18 80 8 26 22 26 25 15 77-6 29-10 54-9 55 2 1 20 5 41 9 28 5 37 4 37-7 0-8 11-19 25-25 18-9 25-19 25-41 0-23 8-34 34-50 41-26 46-26 46-2 0 22 25 45 40 36 16-10 12-33-7-44-28-16-3-46 38-46 30-1 34-5 37-29 2-15-4-38-12-51-23-35-20-55 7-55 12 0 29 4 37 9 10 7 19 2 32-19 10-17 29-32 45-35 68-15 101-56 73-90-16-19-6-45 17-45 17-1 17-1 0-14-15-12-16-18-7-35 6-12 17-21 24-21 9 0 12-7 9-20-8-29-22-34-43-15-20 18-51 17-58-3-2-7 9-17 25-22 22-8 29-17 28-36 0-14-8-30-17-35-10-6-18-17-18-25s-13-17-30-20c-16-4-31-12-31-18-3-19-5-50-7-78-2-20-7-28-21-28-10 0-30-14-44-31-23-28-30-31-61-25-21 4-36 3-36-3 0-5-21-22-47-37-27-15-79-58-116-96-67-67-92-79-115-56-8 8-14 5-21-15-9-22-18-26-68-32-78-9-103-26-103-69 0-42-10-50-90-75-74-23-131-17-207 24-29 15-64 25-90 25-38 0-45 4-83 53-24 31-57 59-81 69-27 12-39 23-39 38 0 26-26 26-40 0-12-23-53-36-72-24-21 14-140 13-129 0 9-11 11-17 11-36 0-20 56-32 176-39 115-6 124-8 159-36 92-74 131-95 237-130 87-28 125-36 164-33 72 6 134 40 171 92 29 42 38 47 124 72 85 26 97 33 172 101 81 75 120 100 191 123 51 16 112 73 141 130 13 25 42 68 64 95 23 28 49 73 58 101 15 48 15 58-1 135-14 67-23 91-49 119-18 19-35 36-40 38-4 2-13 10-21 17-7 7-24 15-37 17-19 2-34 23-78 111-44 89-57 107-76 107s-23 6-27 41c-3 37 6 63 14 39 2-7 11-5 23 4 19 15 19 15-6 16-15 0-35-11-49-25-13-14-30-25-37-25-23 0-121 70-126 91-6 21-15 23-37 9zm-1179-32c-11-29 9-47 44-40 32 6 32-6 0-18-21-8-24-14-19-35 5-20 3-25-13-25-11 0-28 9-38 20s-26 20-35 20c-23 0-44-26-36-46 4-12 1-14-13-9-29 9-36-14-13-44l20-28-24 5c-19 3-24 0-24-16 0-12 5-24 10-27 6-3 10-11 10-17s-12-3-26 7c-33 21-51 7-33-26 9-18 9-24 0-27s-9-8 1-20c11-14 8-14-15 2-28 17-29 17-53-5-31-29-30-39 4-39 35 0 46-8 63-45 8-17 30-38 52-49 36-17 42-17 121-1 73 14 136 13 136-2 0-3-14-19-32-35l-32-30 39-14c22-7 42-14 43-14 2 0 2-5 0-12-5-15-108-20-108-5 0 8-4 7-12-1-7-7-24-12-39-12s-31-4-34-10c-3-5-18-10-33-10-15-1-38-8-52-16l-25-15 25 7c14 4 40 6 59 6 18 0 44 6 56 14s35 14 51 12c16-1 35 1 42 5 6 5 30 3 52-3 56-15 78-6 86 36 8 45 2 50-34 28-26-15-34-15-61-4-17 7-31 16-31 21s25 23 55 40 58 35 61 41c11 17-28 50-52 44-12-3-24-1-26 5-6 18-100 50-114 39-6-6-19-8-28-4-10 4-18 0-22-11-4-9-13-14-21-11s-27-1-43-9c-37-19-66-19-73-1-3 8-22 18-42 22-29 5-33 9-24 20 15 18 33 18 49-1 22-26 38-18 35 18-2 17-7 40-11 51-6 17-5 17 17 6 13-6 34-23 46-37 22-27 60-26 50 1-3 8 1 17 9 20 23 9 8 24-23 24-16 0-34 9-45 22-23 28-18 34 16 19 38-17 44-3 13 29-35 36-34 43 3 36 33-7 36-3 18 26-10 15-10 22-1 31 16 16 57-11 78-51 10-19 23-30 37-30 12 0 30-8 40-17 23-21 38-7 31 29-3 17-18 35-39 47-47 28-46 54 1 45 28-5 35-3 35 10 0 20-31 36-70 36-28 0-30 2-20 20 9 17 17 19 53 14 50-8 67-20 67-46 0-10 8-21 18-25 31-11 62-46 62-71 0-17 8-27 30-35 17-6 28-16 26-22-2-5 3-17 10-26 12-13 12-21-2-50-22-45-21-44-39-29-12 10-16 9-21-4-7-18 21-56 42-56 20 0 27-19 13-37-11-13-10-17 3-27 9-7 20-29 23-49 8-41 28-45 33-6 2 13 7 33 11 44 5 11 12 33 17 49 12 40 26 41 45 4 19-40 39-48 39-16 0 13 6 30 13 38 10 12 9 12-5 1-10-7-18-21-18-30-1-13-3-13-15 3-8 11-15 28-15 38 0 16-3 17-20 8-19-10-20-8-20 34 0 39-7 53-59 118-32 41-92 104-133 139-68 59-79 66-122 67-40 2-48-1-55-20z" transform="matrix(.1 0 0 -.1 0 145)"/><path class="st0" d="M1504 1256c-3-8-19-19-35-25-34-12-50-46-37-80 12-34 6-35-40-5-27 17-46 39-52 60-14 42-22 47-55 34-25-10-27-13-20-48 4-20 11-62 15-92 8-53 8-53 5 15-2 39-5 79-7 90-2 15 3 20 21 20s26-7 32-28c4-15 18-40 31-56 12-15 28-36 33-45 6-10 19-18 30-19 18-2 20 4 20 58 0 65 8 85 31 85 9 0 24 10 33 22 23 28 43 19 66-29 10-21 28-47 41-58s27-37 31-58c10-46 27-53 31-12 3 42-41 148-54 128-8-13-12-12-30 4-11 10-23 26-27 36-8 21-55 23-63 3zM26 912c-13-12-5-22 20-22 14 0 34-4 44-10 16-8 180-240 180-254 0-12-127-183-166-223-31-33-48-43-72-43-22 0-32-5-32-15 0-12 18-15 105-15 85 0 105 3 105 14 0 9-12 16-27 18-20 2-28 8-26 22 1 20 123 206 134 206 8 0 123-183 134-212 6-15 2-18-24-18-21 0-31-5-31-15 0-13 20-15 121-15 92 0 120 3 117 13-3 6-18 14-34 17s-36 10-45 15c-27 16-190 275-183 288 20 32 158 199 177 212 12 8 32 15 44 15 13 0 23 6 23 14 0 12-19 15-90 15-73 0-90-2-90-14 0-8 7-15 15-15 42 0 18-52-86-188l-17-23-30 43c-16 24-42 67-58 96-31 57-27 72 24 72 15 0 22 5 20 13-3 8-39 12-126 14-66 0-123-2-126-5zm1354-9c0-8 13-13 34-13 18 0 39-6 45-14 8-9 11-87 9-262l-3-249-34-5c-19-3-36-11-39-17-3-10 25-13 118-13s121 3 118 13c-3 6-21 13-41 15s-37 4-37 5c-1 1-4 53-7 115l-5 112h65c57 0 68-3 81-22 9-12 16-31 16-41 0-11 5-17 13-14 14 4 14 185 0 190-4 1-13-13-19-32-14-43-32-53-97-49l-52 3-3 70c-2 39 0 99 3 134l7 64 87-5c48-3 97-10 108-16 12-7 38-34 58-62 20-27 40-48 45-45 4 2 0 37-9 77l-17 73h-222c-173 0-222-2-222-12z" transform="matrix(.1 0 0 -.1 0 145)"/><path class="st0" d="M594 755c-9-21 23-65 46-65 11 0 20-4 20-10 0-5 9-19 20-30 17-17 33-20 99-20 64 0 83-4 105-21 14-11 26-26 26-33 0-6 9-20 21-30 13-11 19-25 16-37-3-10 0-22 6-27 7-4 18-17 25-30 12-21 11-24-5-28-10-3-23-15-28-27-14-31-89-45-115-22-17 15-18 14-22-29-4-58-1-66 25-65 17 1 18 2 5 6-13 3-18 15-18 44 0 35 2 39 14 26 37-36 185 51 158 93-7 11-3 22 16 43 28 30 12 39-24 12-28-21-30-19-26 20 3 23 11 36 23 40 10 4 19 13 19 21 0 19-34 18-50-1-7-8-15-15-19-15-12 0-33 62-29 85 7 36-18 52-97 59-96 9-127 8-139-4-18-18-42-11-54 15-11 23-9 27 11 35l22 9h-23c-12 1-25-6-28-14z" transform="matrix(.1 0 0 -.1 0 145)"/></svg>
