<svg xmlns="http://www.w3.org/2000/svg" viewBox="0 0 313.3 341.3"><path d="M311.6 306.3c.4-.5.5-1.1.3-1.3-27.9-18.1-35.5-29.5-43.1-64.3-.1-.8-.7-2.5-1.2-4-.4-1.5-1.1-4.1-1.5-6-.7-2.8-1.7-7.2-4-15.3-4.7-17.3-18.3-26.5-26.7-18.1-2.5 2.7-2.7 2.5-6.4-3.3-2-3.3-3.7-6.3-3.7-6.7 0-1.7-8.1-7.7-14.7-10.7-20.3-9.2-34.4-18.5-44.3-29.1-10-10.7-12.9-15.7-10.4-18.8 1.9-2.3 4.4-2.3 13.6-.1 3.6.8 3.7.7 3.1-3.9-.3-2.5.3-6.8 1.1-9.5 1.5-4.3 2-4.5 3.5-2.7 1.9 2.1 5.6 2.8 7.2 1.2.5-.4.3-1.6-.4-2.4-.8-.9-1.6-4.3-2-7.3-.5-5.5-.4-5.6 2.9-4.7 3.1.7 3.3.5 2.5-2.3-.5-1.7-1.2-5.6-1.6-8.8-.7-5.5-.5-5.7 2-4.4 4 2.3 4.3 1.9 2.4-2.9-3.2-7.5-2.3-18.3 1.1-12.9.4.7 1.3 1.3 2 1.3.5 0-.7-4.7-2.8-10.4-4.3-11.2-4.7-13.6-2.3-11.2 1.7 1.7 5.1 2.1 5.1.5 0-.5-2.4-4-5.3-7.9-4.4-6-4.9-7.2-3.2-8.1s1.3-1.7-2.3-3.9c-2.5-1.5-6-3.3-7.9-4.1-3.1-1.3-2.9-1.3 1.3-.7 4.4.8 4.5.7 2.7-1.7-1.1-1.3-3.5-3.9-5.3-5.5-3.1-2.7-3.1-2.9-.7-3.1 4.9 0-3.5-6.8-8.9-7.1-3.2-.1-4.5-.8-4.1-2 .8-2-1.2-2.1-3.2-.1-.8.8-3.3 1.7-5.7 2-4.1.7-4.3.5-3.5-2.7.4-1.9.7-3.5.5-3.3-.3.1-2.9.9-5.9 1.9-10.8 3.3-11.6 4.3-10.7 10.9.5 3.7.3 5.6-.5 5.1-.8-.4-2.1-.4-2.9.3-.9.5-2.3 1.1-3.1 1.2-7.3 1.2-10.8 2-19.9 4.5-5.9 1.6-13.1 3.1-16 3.2-6.7.5-10.2 4.9-11 13.6-.5 6.1-.4 6.3 2.9 5.5 3.9-.9 10 .3 10 2 0 .7-1.9 1.6-4 2.1-4.7.8-5.7 2-4.5 4.8 1.3 3.5 8.3 5.6 13.1 3.9 10.1-3.5 13.2-3.3 18.7.9 2.8 2.3 5.7 4.1 6.4 4.1s-2.4 2-6.8 4.3c-4.4 2.4-12.3 8.1-17.3 12.8-5.1 4.5-12.3 10.7-16 13.7-12 9.3-20.1 23.5-20.1 34.8 0 3.5-.1 3.6-3.6 2.1-2.1-.9-7.7-4.3-12.7-7.5-6.4-4.3-9.6-5.6-11.7-4.9-3.5 1.1-6.3 5.5-7.3 11.3-.4 2.5-3.1 9.2-5.9 14.7-4.4 8.8-4.9 10.9-4.5 18 .3 4.4.5 9.3.5 10.9.1 1.7.7 3.1 1.2 3.1.7 0 1.6 1.3 2.1 2.9 1.5 4.9 8.4 13.1 10.5 12.3 5.2-2 14.1-21.9 9.9-21.9-3.6 0-10.5-5.2-9.7-7.3.4-1.1 1.3-1.7 1.9-1.3.7.4.9-.9.8-2.9-.3-2.1-.7-3.7-.8-3.7-2.4 0 2-15.3 4.9-17.1 2.5-1.3 9.9 3.6 18.9 12.9 5.5 5.5 12.1 11.6 15.1 13.6 4.4 3.1 5.6 3.3 8.5 2.1 1.9-.9 4.4-4 5.9-7.2 2.7-6.1 3.6-5.1 1.2 1.2-3.7 9.7-4.1 9.2 22.5 30.4 17.7 14.1 26.3 19.2 42 24.8 6.4 2.4 11.6 4.4 11.6 4.8 0 .9-7.5-1.3-18.5-5.7-6.3-2.5-11.9-4.5-12.5-4.5-.8 0-1.1 5.1-.5 12.7.7 11.2 1.3 13.7 5.3 21.1 2.4 4.5 4.8 10 5.2 12.1.8 4.4-2.3 14.9-5.5 18.5-2.7 3.2-16.8 12.9-23.5 16.3-2.9 1.5-6.1 3.5-7.1 4.3-.9.9-3.5 1.7-5.6 1.7-2.9 0-4.4 1.1-6.8 4.9-1.7 2.8-4 6.5-5.1 8.4-1.1 1.9-1.5 2.9-.9 2.4.5-.4 3.6 0 6.5 1.1 3.1 1.2 7.6 2.1 10 2.1 4.5 0 9.6-3.3 9.6-6.4 0-3.5 6.1-6.7 12.5-6.5l6.1.3v-5.1c0-4.4.7-5.5 6.8-9.9 3.7-2.7 8.4-5.2 10.4-5.5 7.1-1.2 12.1-3.5 13.5-5.9 2.1-4 3.1-24.1 1.3-28.7-1.6-4.1-3.5-17.9-2.3-16.7.4.4 1.1 3.6 1.5 7.3 1.5 10.4 5.7 17.9 17.3 29.2 6 5.9 12 13.1 13.6 16 2.7 5.5 2.7 5.5.3 10-4.8 8.7-25.1 25.5-30.5 25.5-3.3 0-6.5 1.5-6.5 2.8 0 .7-2.1 3.2-4.8 5.5l-4.8 4.3 2.9 2.4c2.8 2.3 10.9 5.1 16.9 5.9 3.9.4 9.3-4 11.6-9.5 2-4.5 5.2-6.4 12.1-6.5 3.7-.1 4-.4 3.6-4.9-.5-5.6 4-12.3 16.1-23.7 9.1-8.5 10.3-11.9 6.4-17.3-1.6-2.1-2.8-4.4-2.8-5.1-.1-.5-1.2-3.5-2.7-6.4-3.9-8-3.3-10.1 4.1-17.3 9.9-9.7 15.9-18.5 17.9-26.3 1.1-3.7 1.6-7.2 1.3-7.7-.8-1.2 1.7-4.7 2.7-3.7.4.4 1.1 10 1.3 21.2.4 11.3.9 22.7 1.3 25.2s.9 6.8 1.3 9.3c.3 2.5 1.2 6.7 1.9 8.9.7 2.4 1.1 4.4.8 4.4-.4 0 0 1.6.8 3.7.8 2 1.6 5.1 1.9 6.9 1.1 7.6 4.7 16.1 11.9 28.4 4.3 7.2 8 12.9 8.3 12.7s-.3-5.5-1.2-11.5c-1.1-5.9-1.3-10.5-.7-10.1.5.4 1.1 1.5 1.1 2.5s1.9 4.9 4 8.7c2.3 3.7 4 7.3 4 8 0 .8.7 1.3 1.3 1.3.8 0 1.3-3.2 1.3-7.1.1-8.4 2.3-6 3.3 3.9.5 3.5 1.3 7.3 2 8.4 2 3.6 5.6-7.2 5.1-15.3l-.4-7.1 2.9 2.8c3.3 3.1 14.8 8.5 17.7 8.3 1.1-.1 2.7-.3 3.3-.4.8-.1-.8-1.5-3.3-2.9-5.9-3.5-9.9-7.1-14.9-13.5l-3.9-5.1 5.1 1.9c5.4 1.7 17.3 2 18.9.4zM122.4 28.8c-.6 1.4-2 1.8-3.4 1.5-1.6.1-3.1-.6-3.3-2-.1-.1-.1-.3-.1-.4-.3-2.6 3.2-2.4 5-2.2.7 0 1.3.2 1.7.9.5.7.4 1.5.1 2.2zm30.4 83.2c-.3 0 2.1-6.1 5.3-13.7 13.2-31.2 13.2-44.9-.1-65.7-2.5-4-4.7-7.6-4.7-8 0-.3 1.2-2.3 2.5-4.3 1.5-2 2.9-5.1 3.5-6.8l.9-3.1-7.1 3.7c-4 2-8.3 4.7-9.5 5.7-1.3 1.1-2.4 1.3-2.4.4 0-1.5 15.6-10.7 18.5-10.8 1.3-.1 1.6 1.1.8 4.8-.4 2.8-1.7 6.4-2.8 8-1.7 2.8-1.5 3.6 3.5 11.2 9.6 14.8 11.3 26.3 6.8 44.1-2.1 8.6-13.6 34.5-15.2 34.5z"/><path d="M34.8 73.1c-1.5 2.7-17.7 14.1-22.9 16.1-5.9 2.1-8.1 6.1-8.8 15.5-.4 4.8-1.2 8.7-1.7 8.7-.4 0-.7 2-.4 4.3 1.5 12.8 2 15.7 3.1 15.7 2.4 0 17.1-12.1 16.8-14-.1-1.1-1.9-3.7-3.9-5.7l-3.6-3.7 3.1-2.9c3.6-3.5 4.9-3.7 4.9-.9 0 1.1.7 2 1.5 2s1.1-1.1.5-2.5c-.4-1.3-.1-4 .5-5.7 1.3-3.7 13.7-12 15.6-10.7 3.6 2.7 7.6 17.9 6.4 24.3-.5 2.5.4 4.4 3.6 7.7 5.1 5.2 8.1 5.1 9.2-.4.5-2.3 2.5-7.1 4.4-10.9l3.5-6.8-4-5.2c-5.7-7.1-9.2-14.3-9.2-18.9 0-5.7-3.1-8.1-10.7-8.1-5.1-.3-7 .2-7.9 2.1z"/></svg>
