<svg width="187" height="60" viewBox="0 0 187 60" xmlns="http://www.w3.org/2000/svg"><title>Píratar</title><g fill="#000" fill-rule="evenodd"><path d="M59.468 29.734c0 16.422-13.312 29.734-29.734 29.734C13.312 59.468 0 46.156 0 29.734 0 13.312 13.312 0 29.734 0c16.422 0 29.734 13.312 29.734 29.734zm-4.368 0c0 14.01-11.357 25.365-25.366 25.365-14.01 0-25.365-11.357-25.365-25.366 0-14.01 11.355-25.366 25.364-25.366 14.01 0 25.366 11.357 25.366 25.366z"/><path d="M21.57 13.194V9.248H19.1v4.566c-1.673.507-2.643 1.037-2.485 1.38.553-.163 1.432-.23 2.486-.163v23.715c-2.564 4.944 1.106 12.52 1.106 12.52s-2.723-8.09 3.342-11.91c5.575-3.524 24.808-1.866 24.746-12.723-.096-15.377-17.83-15.282-26.724-13.438zm7.936 14.915c-.862 4.086-5.332 6.222-7.936 7.992V15.41c4.447 1.07 9.672 4.48 7.936 12.7zm11.798-6.368s-.15 1.403-.914 2.655c0 0-.018 1.038.035 1.198.054.16.205.524-.142.648-.346.125-.7.063-.896 0l-.16.382s-.027.88.036 1.083c.062.204.14.382 0 .506-.143.124-.498.15-.764.142 0 0-.09.258-.09.568 0 .31.15 1.092.47 1.75.32.656.578 1.277.462 1.42 0 0-1.083-.098-1.633-.098-.552 0-1.634.097-1.634.097-.116-.142.14-.763.46-1.42.32-.657.472-1.438.472-1.75 0-.31-.09-.567-.09-.567-.266.01-.62-.018-.763-.142-.142-.124-.062-.302 0-.506.062-.204.036-1.083.036-1.083l-.16-.382c-.194.063-.55.125-.896 0-.346-.124-.195-.488-.14-.648.052-.16.034-1.198.034-1.198-.763-1.252-.914-2.655-.914-2.655-.924.187-1.288-.168-1.288-.337 0-.17.243-.472.36-1.117.12-.642.333-2.07.333-2.07s.354.87 1.614.87c1.252 0 2.016-1.527 2.575-1.527.558 0 1.32 1.528 2.573 1.528 1.26 0 1.616-.87 1.616-.87s.213 1.428.33 2.07c.12.645.362.948.362 1.117 0 .17-.365.524-1.288.337z"/></g></svg>