<svg xmlns="http://www.w3.org/2000/svg" viewBox="0 0 503 499.6"><path fill="#FDFDFD" d="M0 187.6V1.6h423c-6.5 2.6-13.6 3.6-19.7 7.6-12.3 8.2-12.5 20.4.1 28.3 10.8 6.8 23 8.6 35.5 7.6 10.9-.8 21.4-3.3 29.6-11.3 6.4-6.3 6.4-14.4.2-20.8-4-4.2-9.2-6.5-14.5-8.5-3-1.1-6.5-.9-9.2-3h58v498H343c3.3-1.9 5.9-4.4 7.9-7.8 48.5-84 97-168 145.5-252.1 9.3-16.2 3.4-32.8-14.1-39.2-53.7-19.6-107.4-39.2-161.2-58.6-5-1.8-9.2-4-10.1-9.8-.9-6.1 2.9-9.4 7.3-12.5 11.1-7.6 22.1-15.4 33.2-23.2 13.9-9.7 27.8-19.5 41.5-29.1-.7-4.5-3.4-3.2-5.7-2.5-40.7 11.8-78.1 30.2-111.9 55.8-13.9 10.5-12.4 26.6 3.4 34 46.4 21.7 92.8 43.3 139.2 64.9 14.6 6.8 17.5 20.7 6.5 31.8-43.9 44-87.9 87.9-131.9 131.9-5 5-10.1 9.7-15.8 15.2-.7-8.4-1.2-15.1 5.7-20.7 7.5-6.1 13.8-13.5 20.6-20.4 1.6-1.6 3.7-2.8 4.3-5.4-1.1-1.9-2.3-3.7-3.4-5.5-27.3-43.6-54.5-87.2-81.8-130.8-14.9-23.7-36.5-35.7-64.6-35.8-47.2-.1-94.3.1-141.5-.2-7.1.1-12.5 1.7-16.1 8.1zM262.6 45.1c-13.7.2-25.8 2.6-36.5 9.9-16 11-16 27.6-.2 38.8 1.5 1.1 3.1 2 4.7 2.8 13.5 7.2 27.9 8.3 42.7 6.3 9.8-1.3 19.1-4.5 26.9-11 12.7-10.6 12.6-24.9-.2-35.2-11.2-8.8-24.5-11.2-37.4-11.6zm123.2 106.4c13.5-.5 27.2-2.5 38.7-11.7 9.7-7.8 9.8-18.7.4-26.8-1.5-1.3-3.1-2.6-4.8-3.5-23.3-11.5-46.9-12-69.7.7-15.2 8.5-14.6 23.4.4 32.6 10.6 6.4 22.3 8.3 35 8.7zm-40.6-88c11.8-.5 23.2-2.2 33.3-8.8 14.2-9.3 14.4-23.8-.4-32.1-21.4-12-43.5-11.5-65.3-.6-1.2.6-2.2 1.5-3.3 2.3-11.1 8.6-11.1 20.8.3 29.1 10.6 7.7 22.8 9.6 35.4 10.1zm93.8 39.9c13-.6 25.2-2.7 35.8-10.2 13.3-9.5 13-24-1.4-31.6-22.1-11.7-44.7-10.9-66.1 1.9-14.9 8.9-13.8 24.1 1.3 32.7 9.5 5.5 20 6.9 30.4 7.2z"/><path fill="#3A6D49" d="M0 187.6c3.6-6.4 9-8 16.2-8 47.2.3 94.3.1 141.5.2 28.1 0 49.7 12 64.6 35.8 27.3 43.6 54.6 87.2 81.8 130.8 1.1 1.8 2.3 3.7 3.4 5.5-.6 2.5-2.8 3.7-4.3 5.4-6.8 6.9-13.2 14.3-20.6 20.4-6.9 5.6-6.4 12.4-5.7 20.7 5.7-5.5 10.9-10.3 15.8-15.2 44-43.9 87.9-87.9 131.9-131.9 11-11.1 8.2-25-6.5-31.8-46.4-21.6-92.8-43.2-139.2-64.9-15.8-7.4-17.4-23.5-3.4-34 33.8-25.6 71.2-44 111.9-55.8 2.3-.7 5-2 5.7 2.5-13.7 9.6-27.6 19.3-41.5 29.1-11 7.7-22.1 15.5-33.2 23.2-4.5 3.1-8.3 6.4-7.3 12.5.9 5.8 5.1 8 10.1 9.8 53.7 19.5 107.5 39 161.2 58.6 17.5 6.4 23.5 23 14.1 39.2-48.5 84-97.1 168-145.5 252.1-2 3.4-4.5 5.9-7.9 7.8h-150c-2.5-2.8-5.2-5.4-7.2-8.7C125 393.5 64.1 296.2 3.2 198.8c-.9-1.5-1.3-3.5-3.2-4.2v-7z"/><path fill="#FDFDFD" d="M0 194.6c1.9.8 2.3 2.8 3.2 4.2C64.1 296.2 125 393.5 185.8 490.9c2 3.3 4.7 5.9 7.2 8.7H0v-305z"/><path fill="#C20D24" d="M262.6 45.1c12.9.4 26.2 2.7 37.4 11.8 12.8 10.3 12.9 24.6.2 35.2-7.8 6.5-17 9.7-26.9 11-14.8 1.9-29.2.9-42.7-6.3-1.6-.9-3.2-1.8-4.7-2.8-15.8-11.2-15.7-27.8.2-38.8 10.7-7.5 22.8-9.8 36.5-10.1zM385.8 151.5c-12.8-.5-24.5-2.3-35-8.7-15-9.1-15.6-24.1-.4-32.6 22.8-12.7 46.3-12.2 69.7-.7 1.8.9 3.3 2.2 4.8 3.5 9.4 8.1 9.4 19-.4 26.8-11.4 9.3-25.2 11.2-38.7 11.7zM345.2 63.5c-12.6-.5-24.9-2.4-35.4-10.1-11.4-8.3-11.4-20.5-.3-29.1 1.1-.8 2.1-1.7 3.3-2.3 21.9-11 43.9-11.4 65.3.6 14.8 8.3 14.6 22.8.4 32.1-10 6.6-21.5 8.3-33.3 8.8zM439 103.4c-10.3-.4-20.8-1.8-30.4-7.2-15.1-8.6-16.2-23.8-1.3-32.7 21.4-12.8 43.9-13.6 66.1-1.9 14.4 7.6 14.7 22.1 1.4 31.6-10.6 7.6-22.8 9.6-35.8 10.2zM434.3 0c10 .3 20.2 2.1 28.9 9.1 9.9 8 9.9 19 .2 27.2-6 5-13.2 7.5-20.8 8.5-11.4 1.5-22.6.7-33-4.9-1.2-.7-2.5-1.4-3.6-2.2-12.2-8.7-12.2-21.5.2-30C414.3 2 423.7.2 434.3 0z"/></svg>
